<svg xmlns="http://www.w3.org/2000/svg" xmlns:xlink="http://www.w3.org/1999/xlink" preserveAspectRatio="xMidYMid" width="19" height="19" viewBox="0 0 19 19">
  <defs>
    <style>
      .cls-1 {
        fill: #fff;
        fill-rule: evenodd;
      }
    </style>
  </defs>
  <g>
    <path d="M18.308,0.661 C18.894,1.247 18.894,2.197 18.308,2.782 L2.751,18.339 C2.166,18.925 1.216,18.925 0.630,18.339 C0.044,17.753 0.044,16.803 0.630,16.217 L16.187,0.661 C16.772,0.075 17.722,0.075 18.308,0.661 Z" class="cls-1"/>
    <path d="M0.453,0.452 C-0.146,1.051 -0.146,2.021 0.453,2.620 L16.349,18.516 C16.948,19.114 17.918,19.114 18.517,18.516 C19.115,17.917 19.115,16.947 18.517,16.348 L2.621,0.452 C2.022,-0.147 1.052,-0.147 0.453,0.452 Z" class="cls-1"/>
  </g>
</svg>
