<svg xmlns="http://www.w3.org/2000/svg" xmlns:xlink="http://www.w3.org/1999/xlink" preserveAspectRatio="xMidYMid" width="25" height="27" viewBox="0 0 25 27">
  <defs>
    <style>
      .cls-1 {
        fill: #ff758f;
        fill-rule: evenodd;
      }
    </style>
  </defs>
  <path d="M13.276,2.110 L13.276,0.822 C13.276,0.367 12.906,-0.000 12.449,-0.000 C11.991,-0.000 11.622,0.367 11.622,0.822 L11.622,2.115 C5.140,2.564 0.000,7.968 0.000,14.543 C0.000,21.412 5.608,27.000 12.500,27.000 C19.391,27.000 25.000,21.412 25.000,14.543 C25.000,7.933 19.809,2.511 13.276,2.110 L13.276,2.110 ZM12.500,25.355 C6.518,25.355 1.651,20.504 1.651,14.543 C1.651,8.582 6.518,3.731 12.500,3.731 C18.482,3.731 23.349,8.582 23.349,14.543 C23.349,20.504 18.482,25.355 12.500,25.355 L12.500,25.355 ZM8.264,22.009 C5.571,20.485 3.896,17.624 3.896,14.543 C3.896,14.316 3.712,14.131 3.484,14.131 C3.257,14.131 3.072,14.315 3.072,14.543 C3.072,17.921 4.907,21.055 7.859,22.724 C7.923,22.761 7.993,22.777 8.062,22.777 C8.206,22.777 8.346,22.703 8.421,22.568 C8.531,22.373 8.462,22.122 8.264,22.009 L8.264,22.009 ZM10.513,23.136 C10.353,23.094 10.195,23.049 10.037,22.998 C9.818,22.930 9.588,23.049 9.519,23.265 C9.450,23.482 9.570,23.714 9.786,23.782 C9.957,23.838 10.131,23.886 10.307,23.930 C10.342,23.941 10.376,23.943 10.411,23.943 C10.595,23.943 10.761,23.819 10.809,23.635 C10.869,23.416 10.735,23.192 10.513,23.136 L10.513,23.136 ZM23.149,6.404 C23.309,6.565 23.521,6.645 23.732,6.645 C23.944,6.645 24.155,6.563 24.318,6.402 C24.639,6.079 24.639,5.559 24.315,5.240 L22.174,3.108 C21.850,2.786 21.329,2.789 21.008,3.111 C20.687,3.433 20.687,3.954 21.011,4.273 L23.149,6.404 L23.149,6.404 ZM13.276,14.390 L13.276,7.814 C13.276,7.359 12.906,6.992 12.449,6.992 C11.991,6.992 11.622,7.359 11.622,7.814 L11.622,14.744 C11.622,14.970 11.740,15.187 11.906,15.340 L14.321,17.590 C14.481,17.741 14.685,17.815 14.888,17.815 C15.107,17.815 15.313,17.727 15.477,17.555 C15.789,17.225 15.763,16.705 15.431,16.393 L13.276,14.390 L13.276,14.390 Z" class="cls-1"/>
</svg>
