<svg xmlns="http://www.w3.org/2000/svg" xmlns:xlink="http://www.w3.org/1999/xlink" preserveAspectRatio="xMidYMid" width="35" height="36" viewBox="0 0 35 36">
  <defs>
    <style>
      .cls-1 {
        fill: #8b1957;
        fill-rule: evenodd;
      }
    </style>
  </defs>
  <path d="M21.698,3.544 C21.698,5.503 20.115,7.090 18.163,7.090 C16.210,7.090 14.628,5.503 14.628,3.544 C14.628,1.585 16.210,-0.002 18.163,-0.002 C20.115,-0.002 21.698,1.585 21.698,3.544 ZM18.163,29.790 C16.454,29.790 15.070,31.180 15.070,32.893 C15.070,34.607 16.454,35.997 18.163,35.997 C19.871,35.997 21.256,34.607 21.256,32.893 C21.256,31.180 19.871,29.790 18.163,29.790 ZM32.790,20.435 C31.570,20.435 30.581,19.443 30.581,18.219 C30.581,16.995 31.570,16.002 32.790,16.002 C34.011,16.002 34.999,16.995 34.999,18.219 C34.999,19.443 34.010,20.435 32.790,20.435 ZM7.070,18.219 C7.070,16.260 5.488,14.672 3.535,14.672 C1.583,14.672 0.000,16.260 0.000,18.219 C0.000,20.177 1.583,21.765 3.535,21.765 C5.488,21.765 7.070,20.177 7.070,18.219 ZM10.319,5.334 C11.700,6.720 11.700,8.965 10.319,10.350 C8.939,11.735 6.701,11.735 5.320,10.350 C3.940,8.965 3.940,6.720 5.320,5.334 C6.701,3.950 8.939,3.950 10.319,5.334 ZM26.631,26.715 C25.596,27.753 25.596,29.437 26.631,30.476 C27.667,31.515 29.345,31.515 30.381,30.476 C31.416,29.437 31.416,27.753 30.381,26.715 C29.345,25.676 27.667,25.676 26.631,26.715 ZM29.756,9.096 C29.066,9.789 27.946,9.789 27.256,9.096 C26.566,8.403 26.566,7.281 27.256,6.588 C27.947,5.896 29.066,5.896 29.756,6.588 C30.446,7.281 30.446,8.404 29.756,9.096 ZM10.319,26.088 C8.939,24.703 6.701,24.703 5.320,26.088 C3.940,27.473 3.940,29.718 5.320,31.103 C6.701,32.488 8.939,32.488 10.319,31.103 C11.700,29.718 11.700,27.473 10.319,26.088 Z" class="cls-1"/>
</svg>
