<svg xmlns="http://www.w3.org/2000/svg" xmlns:xlink="http://www.w3.org/1999/xlink" preserveAspectRatio="xMidYMid" width="34" height="31.969" viewBox="0 0 34 31.969">
  <defs>
    <style>
      .cls-1 {
        fill: #f856ad;
        fill-rule: evenodd;
      }
    </style>
  </defs>
  <path d="M33.829,8.104 C32.959,3.025 28.371,-0.741 23.358,0.079 C21.508,0.382 20.067,1.816 18.741,3.077 C18.616,3.196 17.536,4.201 17.251,4.884 C12.856,-0.648 3.190,-1.155 0.569,6.468 C-1.225,11.687 1.543,17.255 4.657,21.251 C6.371,23.450 8.433,25.303 10.444,27.204 C12.149,28.816 13.991,30.519 16.217,31.294 C16.584,31.622 17.039,31.789 17.496,31.949 C17.590,31.981 17.671,31.974 17.738,31.942 C17.816,31.943 17.900,31.923 17.985,31.872 C20.166,30.587 22.064,28.820 23.934,27.104 C25.878,25.318 27.721,23.412 29.368,21.331 C32.303,17.621 34.671,13.019 33.829,8.104 ZM32.721,7.943 C32.697,7.962 32.674,7.985 32.654,8.015 C30.633,10.987 28.544,13.895 26.421,16.779 C27.439,15.211 28.449,13.636 29.445,12.053 C30.157,10.921 30.869,9.789 31.550,8.637 C31.849,8.133 32.215,7.605 32.463,7.050 C32.562,7.344 32.648,7.642 32.721,7.943 ZM28.223,1.744 C25.118,5.709 22.884,10.324 19.952,14.427 C19.253,15.405 18.521,16.380 17.785,17.360 C19.207,15.269 20.607,13.164 21.989,11.055 C23.012,9.494 23.785,7.785 24.649,6.130 C25.429,4.638 26.327,2.482 27.768,1.523 C27.923,1.591 28.074,1.666 28.223,1.744 ZM14.484,3.592 C13.839,4.183 13.252,4.868 12.708,5.607 C13.213,4.873 13.717,4.118 14.108,3.331 C14.235,3.415 14.360,3.502 14.484,3.592 ZM12.162,2.318 C12.359,2.394 12.553,2.479 12.745,2.567 C12.053,3.138 11.494,4.248 11.073,4.890 C10.164,6.276 9.365,7.736 8.439,9.110 C7.898,9.913 7.249,10.719 6.589,11.544 C7.182,10.625 7.763,9.698 8.332,8.764 C9.567,6.741 10.588,4.341 12.105,2.527 C12.156,2.467 12.171,2.390 12.162,2.318 ZM8.100,1.699 C8.107,1.699 8.114,1.699 8.122,1.698 C7.702,1.966 7.361,2.474 7.095,2.826 C6.941,3.028 6.794,3.236 6.649,3.445 C6.926,2.899 7.184,2.348 7.403,1.791 C7.632,1.751 7.864,1.719 8.100,1.699 ZM1.317,7.509 C1.686,5.871 2.526,4.517 3.668,3.526 C3.171,4.435 2.648,5.329 2.120,6.220 C1.855,6.668 1.573,7.125 1.300,7.592 C1.306,7.564 1.310,7.537 1.317,7.509 ZM1.073,9.235 C1.567,8.318 2.036,7.381 2.564,6.487 C3.251,5.323 3.930,4.167 4.467,2.925 C4.673,2.791 4.888,2.669 5.107,2.555 C4.251,3.616 3.648,5.013 3.069,6.171 C2.413,7.482 1.785,8.790 1.051,10.047 C1.049,9.777 1.056,9.506 1.073,9.235 ZM1.074,10.677 C1.943,9.448 2.608,8.072 3.289,6.727 C4.110,5.104 5.067,3.671 6.026,2.151 C6.262,2.066 6.504,1.995 6.750,1.931 C5.740,3.524 4.976,5.352 4.062,6.991 C3.171,8.588 2.185,10.106 1.174,11.618 C1.130,11.306 1.094,10.992 1.074,10.677 ZM1.251,12.120 C1.970,11.256 2.614,10.321 3.220,9.361 C2.593,10.534 1.989,11.721 1.422,12.920 C1.358,12.655 1.299,12.388 1.251,12.120 ZM1.561,13.457 C2.830,11.647 3.746,9.489 4.817,7.561 C5.491,6.347 6.193,5.147 6.955,3.987 C7.431,3.264 7.991,2.350 8.775,1.936 C8.876,1.882 8.898,1.770 8.867,1.675 C9.060,1.677 9.252,1.684 9.444,1.698 C7.914,3.678 6.667,5.947 5.381,8.095 C4.159,10.136 2.938,12.194 1.830,14.306 C1.733,14.025 1.641,13.742 1.561,13.457 ZM1.988,14.743 C3.231,12.765 4.407,10.740 5.624,8.744 C7.025,6.447 8.622,4.230 9.910,1.864 C9.930,1.826 9.936,1.787 9.935,1.749 C10.119,1.772 10.303,1.803 10.487,1.837 C7.651,6.289 4.728,10.772 2.283,15.469 C2.179,15.229 2.080,14.987 1.988,14.743 ZM2.468,15.885 C5.432,11.315 8.235,6.613 11.099,1.975 C11.318,2.032 11.535,2.099 11.750,2.170 C11.187,2.446 10.834,3.272 10.542,3.772 C9.854,4.951 9.182,6.140 8.499,7.321 C6.693,10.445 4.718,13.454 2.755,16.473 C2.657,16.278 2.559,16.083 2.468,15.885 ZM2.932,16.820 C3.215,16.444 3.494,16.064 3.770,15.683 C3.523,16.198 3.322,16.729 3.182,17.275 C3.097,17.124 3.013,16.973 2.932,16.820 ZM3.458,17.755 C4.680,14.714 6.895,12.335 8.778,9.710 C9.617,8.541 10.327,7.270 11.087,6.045 C11.481,5.411 11.887,4.785 12.310,4.171 C12.609,3.738 13.055,3.326 13.342,2.867 C13.434,2.917 13.523,2.971 13.613,3.024 C12.915,3.994 12.326,5.076 11.674,6.070 C10.781,7.428 9.862,8.768 8.954,10.116 C7.154,12.790 5.305,15.481 3.835,18.370 C3.707,18.167 3.580,17.962 3.458,17.755 ZM4.057,18.713 C5.695,16.001 7.409,13.354 9.201,10.745 C10.089,9.451 10.980,8.158 11.855,6.853 C10.963,8.243 10.178,9.721 9.409,11.049 C7.807,13.818 6.218,16.565 4.365,19.164 C4.262,19.014 4.157,18.866 4.057,18.713 ZM4.594,19.497 C6.643,17.164 8.178,14.367 9.742,11.685 C10.547,10.305 11.363,8.932 12.235,7.596 C13.070,6.317 14.061,5.183 14.968,3.969 C15.106,4.082 15.238,4.201 15.369,4.321 C13.656,6.792 12.057,9.359 10.407,11.875 C8.606,14.621 6.790,17.371 5.115,20.201 C4.938,19.970 4.764,19.736 4.594,19.497 ZM5.349,20.504 C7.170,17.875 8.941,15.205 10.715,12.542 C12.431,9.968 14.228,7.417 15.809,4.749 C15.880,4.822 15.945,4.901 16.013,4.976 C14.066,7.299 12.649,10.109 11.187,12.758 C9.584,15.663 7.924,18.513 5.741,20.991 C5.609,20.830 5.478,20.669 5.349,20.504 ZM6.647,22.039 C6.529,21.908 6.409,21.778 6.293,21.645 C6.197,21.535 6.103,21.422 6.008,21.310 C8.229,19.142 9.839,16.422 11.373,13.714 C12.978,10.884 14.539,8.097 16.433,5.468 C16.528,5.587 16.624,5.705 16.713,5.829 C16.765,5.903 16.828,5.954 16.895,5.990 C15.268,8.041 13.836,10.252 12.453,12.485 C10.494,15.645 8.519,18.824 6.647,22.039 ZM6.905,22.325 C9.072,19.611 10.795,16.466 12.613,13.503 C14.557,10.337 16.593,7.229 18.971,4.387 C19.032,4.315 19.048,4.235 19.037,4.161 C19.195,4.007 19.356,3.857 19.517,3.707 C18.390,5.345 17.419,7.097 16.419,8.818 C13.620,13.636 9.790,17.755 7.387,22.829 C7.227,22.661 7.063,22.496 6.905,22.325 ZM7.629,23.082 C10.341,18.501 13.844,14.468 16.528,9.882 C17.445,8.315 18.303,6.714 19.245,5.162 C19.941,4.016 20.761,2.375 22.002,1.758 C22.034,1.742 22.055,1.719 22.071,1.695 C22.168,1.641 22.266,1.590 22.366,1.541 C21.293,2.850 20.436,4.366 19.579,5.818 C18.379,7.853 17.152,9.853 15.835,11.810 C13.212,15.708 10.390,19.525 8.322,23.779 C8.089,23.548 7.858,23.317 7.629,23.082 ZM8.598,24.054 C10.878,20.028 13.523,16.271 16.122,12.460 C18.598,8.830 20.516,4.729 23.292,1.333 C23.336,1.280 23.357,1.223 23.362,1.167 C23.425,1.151 23.490,1.137 23.554,1.122 C22.805,1.777 22.196,3.013 21.799,3.644 C20.795,5.240 19.853,6.886 18.900,8.514 C15.732,13.930 12.468,19.255 9.103,24.541 C8.935,24.378 8.765,24.218 8.598,24.054 ZM9.373,24.801 C12.811,20.267 15.666,15.236 18.557,10.326 C19.578,8.591 20.606,6.861 21.637,5.133 C22.093,4.368 22.564,3.613 23.064,2.878 C23.395,2.391 23.920,1.473 24.508,1.251 C24.654,1.196 24.708,1.078 24.699,0.966 C24.730,0.964 24.760,0.961 24.792,0.960 C25.193,0.945 25.581,0.968 25.960,1.019 C23.216,4.917 20.723,8.993 18.197,13.042 C15.573,17.247 12.813,21.338 10.051,25.444 C9.825,25.230 9.598,25.016 9.373,24.801 ZM10.286,25.667 C13.388,21.984 15.945,17.794 18.510,13.711 C21.165,9.485 23.781,5.231 26.633,1.142 C26.832,1.189 27.026,1.247 27.217,1.312 C26.082,2.106 25.334,3.622 24.680,4.776 C23.712,6.487 22.933,8.308 21.939,10.003 C18.621,15.657 14.394,20.726 10.965,26.311 C10.738,26.097 10.512,25.882 10.286,25.667 ZM11.250,26.581 C12.003,25.571 12.745,24.550 13.482,23.525 C12.808,24.641 12.198,25.790 11.681,26.983 C11.537,26.849 11.393,26.715 11.250,26.581 ZM11.955,27.235 C14.474,22.972 17.340,19.061 20.250,15.070 C23.302,10.882 25.573,6.132 28.744,2.044 C28.934,2.165 29.117,2.297 29.296,2.434 C28.471,2.591 27.504,4.572 27.202,5.051 C26.154,6.716 25.172,8.427 24.152,10.110 C22.275,13.206 20.296,16.237 18.284,19.242 C16.383,22.080 14.315,24.828 12.504,27.730 C12.320,27.566 12.136,27.401 11.955,27.235 ZM14.651,29.435 C14.005,28.989 13.386,28.495 12.789,27.978 C14.671,25.634 16.350,23.092 18.058,20.618 C19.947,17.881 21.784,15.109 23.557,12.291 C24.685,10.497 25.772,8.676 26.855,6.852 C27.350,6.018 27.857,5.192 28.386,4.380 C28.604,4.044 29.131,2.984 29.549,2.873 C29.621,2.854 29.664,2.807 29.685,2.751 C29.825,2.872 29.960,2.999 30.091,3.130 C28.460,4.611 27.354,6.668 26.271,8.574 C24.895,10.993 23.307,13.278 21.820,15.624 C20.313,18.002 18.969,20.457 17.280,22.706 C15.921,24.515 14.470,26.322 13.639,28.466 C13.538,28.727 13.962,28.908 14.080,28.657 C15.140,26.408 16.662,24.496 18.146,22.534 C19.631,20.572 20.822,18.410 22.131,16.323 C23.554,14.055 25.105,11.860 26.450,9.542 C27.677,7.426 28.813,5.327 30.499,3.567 C30.597,3.679 30.692,3.793 30.785,3.910 C29.223,5.204 28.191,7.159 27.230,8.921 C26.019,11.142 24.766,13.307 23.365,15.410 C21.781,17.786 20.101,20.092 18.513,22.465 C17.074,24.616 15.447,26.913 14.653,29.418 C14.651,29.424 14.652,29.429 14.651,29.435 ZM15.445,29.943 C15.234,29.817 15.026,29.687 14.822,29.550 C14.838,29.541 14.853,29.529 14.864,29.510 C16.168,27.354 17.371,25.166 18.788,23.080 C20.322,20.821 21.934,18.620 23.480,16.371 C24.860,14.364 26.143,12.303 27.297,10.149 C28.399,8.095 29.485,6.024 31.146,4.400 C31.252,4.552 31.352,4.708 31.449,4.867 C30.096,6.219 29.094,8.085 28.087,9.698 C26.338,12.502 24.663,15.353 22.980,18.198 C21.410,20.850 19.842,23.507 18.198,26.113 C17.619,27.032 17.026,27.946 16.385,28.820 C16.236,29.024 15.758,29.788 15.445,29.943 ZM16.208,30.364 C16.039,30.279 15.873,30.191 15.708,30.098 C17.361,29.155 22.186,20.725 22.624,19.994 C24.436,16.970 26.220,13.929 28.054,10.919 C29.196,9.045 30.306,7.029 31.730,5.352 C31.922,5.707 32.092,6.076 32.243,6.453 C31.828,6.934 31.515,7.534 31.177,8.071 C30.523,9.111 29.872,10.153 29.217,11.192 C27.524,13.879 25.811,16.554 24.071,19.209 C22.399,21.761 20.713,24.305 18.944,26.787 C18.337,27.638 17.728,28.490 17.071,29.301 C16.936,29.468 16.478,30.168 16.208,30.364 ZM16.934,30.635 C16.860,30.604 16.785,30.573 16.715,30.537 C16.660,30.510 16.609,30.502 16.559,30.502 C16.714,30.402 16.893,30.250 17.088,30.062 C17.009,30.263 16.954,30.457 16.934,30.635 ZM18.359,30.449 C18.145,30.592 17.929,30.732 17.713,30.868 C17.677,30.850 17.636,30.839 17.591,30.840 C17.514,30.841 17.437,30.830 17.360,30.815 C17.346,30.809 17.331,30.804 17.317,30.797 C17.427,30.428 17.698,30.025 17.849,29.752 C18.305,28.926 18.845,28.147 19.375,27.369 C20.791,25.289 22.315,23.283 23.833,21.281 C26.937,17.187 30.133,13.128 32.890,8.773 C32.970,9.264 33.014,9.759 33.022,10.251 C30.809,12.105 29.448,14.978 27.827,17.338 C26.776,18.868 25.688,20.371 24.607,21.879 C23.218,23.816 21.818,25.745 20.402,27.661 C19.864,28.388 19.324,29.115 18.772,29.831 C18.702,29.921 18.510,30.221 18.359,30.449 ZM20.116,28.954 C21.538,27.123 22.914,25.254 24.281,23.380 C25.542,21.653 26.794,19.919 28.022,18.167 C29.679,15.803 31.080,13.247 32.999,11.098 C32.972,11.502 32.921,11.902 32.851,12.299 C30.814,14.850 28.802,17.427 26.831,20.033 C24.864,22.635 22.861,25.295 21.328,28.200 C20.816,28.630 20.298,29.050 19.770,29.447 C19.931,29.218 20.056,29.031 20.116,28.954 ZM27.421,22.110 C25.881,23.896 24.163,25.696 22.329,27.334 C24.030,24.911 25.704,22.476 27.501,20.122 C29.156,17.957 30.868,15.837 32.526,13.674 C31.592,16.843 29.485,19.718 27.421,22.110 Z" class="cls-1"/>
</svg>
