<svg xmlns="http://www.w3.org/2000/svg" xmlns:xlink="http://www.w3.org/1999/xlink" preserveAspectRatio="xMidYMid" width="14.031" height="14" viewBox="0 0 14.031 14">
  <defs>
    <style>
      .cls-1 {
        fill: #fff;
        fill-rule: evenodd;
      }
    </style>
  </defs>
  <path d="M13.760,13.760 C13.440,14.080 12.920,14.078 12.598,13.756 L10.604,11.763 C9.490,12.629 8.095,13.151 6.577,13.151 C2.950,13.151 -0.000,10.201 -0.000,6.575 C-0.000,2.949 2.950,-0.001 6.577,-0.001 C10.204,-0.001 13.155,2.949 13.155,6.575 C13.155,8.094 12.632,9.491 11.763,10.606 L13.757,12.599 C14.078,12.921 14.080,13.440 13.760,13.760 ZM11.902,6.575 C11.902,3.640 9.513,1.252 6.577,1.252 C3.641,1.252 1.253,3.640 1.253,6.575 C1.253,9.510 3.641,11.898 6.577,11.898 C9.513,11.898 11.902,9.510 11.902,6.575 ZM8.794,7.202 L7.204,7.202 L7.204,8.791 C7.204,9.124 6.923,9.394 6.577,9.394 C6.231,9.394 5.951,9.124 5.951,8.791 L5.951,7.202 L4.361,7.202 C4.028,7.202 3.758,6.921 3.758,6.575 C3.758,6.229 4.028,5.949 4.361,5.949 L5.951,5.949 L5.951,4.359 C5.951,4.026 6.231,3.757 6.577,3.757 C6.923,3.757 7.204,4.027 7.204,4.359 L7.204,5.949 L8.794,5.949 C9.126,5.949 9.396,6.229 9.396,6.575 C9.396,6.921 9.126,7.202 8.794,7.202 Z" class="cls-1"/>
</svg>
