<svg xmlns="http://www.w3.org/2000/svg" xmlns:xlink="http://www.w3.org/1999/xlink" preserveAspectRatio="xMidYMid" width="33" height="33" viewBox="0 0 33 33">
  <defs>
    <style>
      .cls-1 {
        fill: #ff5474;
        fill-rule: evenodd;
      }
    </style>
  </defs>
  <path d="M32.108,32.108 C31.533,32.683 30.769,32.999 29.954,32.999 C29.143,32.999 28.380,32.685 27.807,32.115 L22.029,26.514 L23.388,25.112 L29.181,30.728 C29.387,30.934 29.661,31.047 29.954,31.047 C30.247,31.047 30.522,30.933 30.727,30.728 C30.933,30.522 31.047,30.246 31.047,29.953 C31.047,29.660 30.934,29.385 30.728,29.180 L30.717,29.169 L25.113,23.388 L26.514,22.029 L32.114,27.805 C32.685,28.379 32.999,29.141 32.999,29.953 C32.999,30.767 32.683,31.533 32.108,32.108 ZM22.867,22.866 C21.637,24.096 20.204,25.062 18.609,25.736 C16.957,26.435 15.203,26.789 13.395,26.789 C11.587,26.789 9.833,26.435 8.181,25.736 C6.585,25.062 5.153,24.096 3.923,22.866 C2.693,21.636 1.728,20.204 1.053,18.609 C0.354,16.957 0.000,15.203 0.000,13.395 C0.000,11.586 0.354,9.832 1.053,8.180 C1.728,6.585 2.693,5.152 3.923,3.923 C5.153,2.693 6.585,1.727 8.181,1.053 C9.833,0.354 11.587,-0.000 13.395,-0.000 C15.203,-0.000 16.957,0.354 18.609,1.053 C20.204,1.727 21.637,2.693 22.867,3.923 C24.097,5.152 25.062,6.585 25.737,8.180 C26.436,9.832 26.790,11.586 26.790,13.395 C26.790,15.203 26.436,16.957 25.737,18.609 C25.062,20.204 24.097,21.637 22.867,22.866 ZM13.395,1.952 C7.085,1.952 1.952,7.085 1.952,13.395 C1.952,19.704 7.085,24.837 13.395,24.837 C19.704,24.837 24.837,19.704 24.837,13.395 C24.837,7.085 19.704,1.952 13.395,1.952 ZM8.967,17.824 L7.587,19.205 C6.034,17.652 5.178,15.588 5.179,13.393 C5.179,11.198 6.034,9.134 7.587,7.581 L8.967,8.961 C6.524,11.406 6.524,15.382 8.967,17.824 Z" class="cls-1"/>
</svg>
